<svg width="60" height="60" viewBox="0 0 60 60" fill="none" xmlns="http://www.w3.org/2000/svg">
<circle cx="30" cy="30" r="30" fill="black"/>
<g clip-path="url(#clip0_3_523)">
<path d="M40 25H33V23H40V25ZM41.726 35C41.284 36.297 39.697 38 36.625 38C33.551 38 31.061 36.271 31.061 32.325C31.061 28.415 33.386 26.405 36.527 26.405C39.609 26.405 41.491 28.187 41.902 30.831C41.98 31.337 42.011 32.019 41.997 32.971H33.97C34.1 36.182 37.453 36.283 38.558 35H41.726ZM34.04 31H39.005C38.9 29.453 37.869 28.781 36.528 28.781C35.062 28.781 34.251 29.549 34.04 31ZM24.466 37.988H18V23.021H24.953C30.429 23.102 30.533 28.465 27.673 29.927C31.134 31.187 31.25 37.988 24.466 37.988ZM21 29H24.584C27.092 29 27.49 26 24.272 26H21V29ZM24.391 32H21V35.016H24.341C27.396 35.016 27.209 32 24.391 32Z" fill="white"/>
</g>
<defs>
<clipPath id="clip0_3_523">
<rect width="24" height="24" fill="white" transform="translate(18 18)"/>
</clipPath>
</defs>
</svg>
