<svg width="60" height="60" viewBox="0 0 60 60" fill="none" xmlns="http://www.w3.org/2000/svg">
<circle cx="30" cy="30" r="30" fill="black"/>
<g clip-path="url(#clip0_3_524)">
<path fill-rule="evenodd" clip-rule="evenodd" d="M30 17C22.8175 17 17 22.8175 17 30C17 35.7525 20.7213 40.6113 25.8888 42.3338C26.5388 42.4475 26.7825 42.0575 26.7825 41.7163C26.7825 41.4075 26.7663 40.3838 26.7663 39.295C23.5 39.8963 22.655 38.4988 22.395 37.7675C22.2488 37.3938 21.615 36.24 21.0625 35.9313C20.6075 35.6875 19.9575 35.0863 21.0462 35.07C22.07 35.0538 22.8012 36.0125 23.045 36.4025C24.215 38.3688 26.0837 37.8162 26.8313 37.475C26.945 36.63 27.2863 36.0613 27.66 35.7362C24.7675 35.4113 21.745 34.29 21.745 29.3175C21.745 27.9038 22.2488 26.7338 23.0775 25.8238C22.9475 25.4988 22.4925 24.1663 23.2075 22.3788C23.2075 22.3788 24.2962 22.0375 26.7825 23.7113C27.8225 23.4188 28.9275 23.2725 30.0325 23.2725C31.1375 23.2725 32.2425 23.4188 33.2825 23.7113C35.7688 22.0213 36.8575 22.3788 36.8575 22.3788C37.5725 24.1663 37.1175 25.4988 36.9875 25.8238C37.8163 26.7338 38.32 27.8875 38.32 29.3175C38.32 34.3062 35.2812 35.4113 32.3888 35.7362C32.86 36.1425 33.2663 36.9225 33.2663 38.1413C33.2663 39.88 33.25 41.2775 33.25 41.7163C33.25 42.0575 33.4937 42.4638 34.1438 42.3338C36.7244 41.4625 38.9669 39.8038 40.5556 37.5913C42.1443 35.3788 42.9992 32.7238 43 30C43 22.8175 37.1825 17 30 17Z" fill="white"/>
</g>
<defs>
<clipPath id="clip0_3_524">
<rect width="26" height="26" fill="white" transform="translate(17 17)"/>
</clipPath>
</defs>
</svg>
