<svg width="20" height="20" viewBox="0 0 20 20" fill="none" xmlns="http://www.w3.org/2000/svg">
<g clip-path="url(#clip0_2_115)">
<path d="M5.8061 4.32444L4.3819 2.90554L3.26628 4.02322L4.68257 5.44212L5.8061 4.32444ZM1.24866 8.81102H3.62233V10.3964H1.24866V8.81102ZM9.16089 0.923828H10.7433V3.26224H9.16089V0.923828ZM15.5223 2.90157L16.6364 4.01688L15.2201 5.43578L14.1068 4.31968L15.5223 2.90157ZM14.0981 14.883L15.5144 16.3098L16.63 15.1921L15.2058 13.7732L14.0981 14.883ZM16.2819 8.81102H18.6556V10.3964H16.2819V8.81102ZM9.95211 4.84761C7.33316 4.84761 5.20477 6.97993 5.20477 9.60371C5.20477 12.2275 7.33316 14.3598 9.95211 14.3598C12.5711 14.3598 14.6995 12.2275 14.6995 9.60371C14.6995 6.97993 12.5711 4.84761 9.95211 4.84761ZM9.95211 12.7744C8.20351 12.7744 6.78722 11.3555 6.78722 9.60371C6.78722 7.85188 8.20351 6.43297 9.95211 6.43297C11.7007 6.43297 13.117 7.85188 13.117 9.60371C13.117 11.3555 11.7007 12.7744 9.95211 12.7744ZM9.16089 15.9452H10.7433V18.2836H9.16089V15.9452ZM3.26628 15.1842L4.3819 16.3019L5.79819 14.875L4.68257 13.7574L3.26628 15.1842Z" fill="black"/>
</g>
<defs>
<clipPath id="clip0_2_115">
<rect width="18.9894" height="19.0244" fill="white" transform="translate(0.457397 0.487793)"/>
</clipPath>
</defs>
</svg>
