<svg width="60" height="60" viewBox="0 0 60 60" fill="none" xmlns="http://www.w3.org/2000/svg">
<circle cx="30" cy="30" r="30" fill="black"/>
<path d="M40.9741 16.8281H18.0259C16.8125 16.8281 15.8281 17.8125 15.8281 19.0259V41.9741C15.8281 43.1875 16.8125 44.1719 18.0259 44.1719H40.9741C42.1875 44.1719 43.1719 43.1875 43.1719 41.9741V19.0259C43.1719 17.8125 42.1875 16.8281 40.9741 16.8281ZM40.9741 41.9844C25.6685 41.981 18.0156 41.9775 18.0156 41.9741C18.019 26.6685 18.0225 19.0156 18.0259 19.0156C33.3315 19.019 40.9844 19.0225 40.9844 19.0259C40.981 34.3315 40.9775 41.9844 40.9741 41.9844ZM19.8818 27.0786H23.939V40.1284H19.8818V27.0786ZM21.9121 25.2944C23.2075 25.2944 24.2637 24.2417 24.2637 22.9429C24.2637 22.6341 24.2028 22.3283 24.0847 22.043C23.9665 21.7577 23.7933 21.4984 23.5749 21.2801C23.3566 21.0617 23.0973 20.8885 22.812 20.7703C22.5267 20.6521 22.2209 20.5913 21.9121 20.5913C21.6033 20.5913 21.2975 20.6521 21.0122 20.7703C20.7269 20.8885 20.4677 21.0617 20.2493 21.2801C20.0309 21.4984 19.8577 21.7577 19.7395 22.043C19.6214 22.3283 19.5605 22.6341 19.5605 22.9429C19.5571 24.2417 20.6099 25.2944 21.9121 25.2944ZM30.5356 33.6719C30.5356 31.9697 30.8604 30.3223 32.9692 30.3223C35.0474 30.3223 35.0781 32.2671 35.0781 33.7812V40.1284H39.1318V32.9712C39.1318 29.4575 38.373 26.7539 34.2681 26.7539C32.2959 26.7539 30.9731 27.8374 30.4297 28.8628H30.375V27.0786H26.4819V40.1284H30.5356V33.6719Z" fill="white"/>
</svg>
