<svg width="20" height="204" viewBox="0 0 20 204" fill="none" xmlns="http://www.w3.org/2000/svg">
<line y1="-0.5" x2="94" y2="-0.5" transform="matrix(-4.37114e-08 1 1 4.37114e-08 16 110)" stroke="black"/>
<line y1="-0.5" x2="10.8167" y2="-0.5" transform="matrix(-0.5547 -0.83205 -0.83205 0.5547 15 204)" stroke="black"/>
<path d="M16.096 89.088C16.096 89.92 15.9627 90.72 15.696 91.488C15.4293 92.2453 15.0773 92.832 14.64 93.248L13.728 92.784C14.1333 92.3787 14.464 91.84 14.72 91.168C14.9653 90.496 15.088 89.8027 15.088 89.088C15.088 88.0853 14.9067 87.3333 14.544 86.832C14.1707 86.3307 13.6907 86.08 13.104 86.08C12.656 86.08 12.2987 86.2187 12.032 86.496C11.7653 86.7627 11.5627 87.0933 11.424 87.488C11.2747 87.8827 11.1147 88.432 10.944 89.136C10.7307 89.9787 10.528 90.6507 10.336 91.152C10.1333 91.6533 9.82933 92.0853 9.424 92.448C9.01867 92.8 8.46933 92.976 7.776 92.976C7.21067 92.976 6.69867 92.8267 6.24 92.528C5.77067 92.2293 5.39733 91.7707 5.12 91.152C4.84267 90.5333 4.704 89.7653 4.704 88.848C4.704 88.208 4.79467 87.584 4.976 86.976C5.14667 86.3573 5.38667 85.824 5.696 85.376L6.64 85.776C6.33067 86.2453 6.10133 86.7467 5.952 87.28C5.792 87.8133 5.712 88.336 5.712 88.848C5.712 89.8293 5.904 90.5707 6.288 91.072C6.66133 91.5627 7.14667 91.808 7.744 91.808C8.192 91.808 8.55467 91.6747 8.832 91.408C9.09867 91.1307 9.30667 90.7893 9.456 90.384C9.59467 89.968 9.74933 89.4133 9.92 88.72C10.1227 87.8987 10.3253 87.2373 10.528 86.736C10.72 86.224 11.0187 85.792 11.424 85.44C11.8187 85.088 12.3573 84.912 13.04 84.912C13.6053 84.912 14.1227 85.0667 14.592 85.376C15.0507 85.6747 15.4187 86.1387 15.696 86.768C15.9627 87.3973 16.096 88.1707 16.096 89.088ZM16.08 79.0843C16.08 79.9163 15.8987 80.6629 15.536 81.3243C15.1733 81.9749 14.6667 82.4869 14.016 82.8603C13.3547 83.2336 12.6133 83.4203 11.792 83.4203C10.9707 83.4203 10.2347 83.2336 9.584 82.8603C8.93333 82.4869 8.42667 81.9749 8.064 81.3243C7.70133 80.6629 7.52 79.9163 7.52 79.0843C7.52 78.3589 7.664 77.7136 7.952 77.1482C8.22933 76.5722 8.64 76.1189 9.184 75.7883L9.76 76.6362C9.344 76.9136 9.03467 77.2656 8.832 77.6922C8.61867 78.1189 8.512 78.5829 8.512 79.0843C8.512 79.6922 8.65067 80.2416 8.928 80.7322C9.19467 81.2122 9.57867 81.5909 10.08 81.8683C10.5813 82.1349 11.152 82.2683 11.792 82.2683C12.4427 82.2683 13.0187 82.1349 13.52 81.8683C14.0107 81.5909 14.3947 81.2122 14.672 80.7322C14.9387 80.2416 15.072 79.6922 15.072 79.0843C15.072 78.5829 14.9707 78.1189 14.768 77.6922C14.5653 77.2656 14.256 76.9136 13.84 76.6362L14.416 75.7883C14.96 76.1189 15.376 76.5722 15.664 77.1482C15.9413 77.7243 16.08 78.3696 16.08 79.0843ZM9.232 72.4686C8.66667 72.202 8.24 71.8073 7.952 71.2846C7.664 70.7513 7.52 70.0953 7.52 69.3166L8.624 69.3166L8.608 69.5886C8.608 70.474 8.88 71.1673 9.424 71.6686C9.968 72.17 10.7307 72.4206 11.712 72.4206L16 72.4206L16 73.5566L7.584 73.5566L7.584 72.4686L9.232 72.4686ZM16.08 63.8979C16.08 64.7085 15.8987 65.4392 15.536 66.0899C15.1627 66.7405 14.6507 67.2525 14 67.6259C13.3493 67.9992 12.6133 68.1859 11.792 68.1859C10.9707 68.1859 10.2347 67.9992 9.584 67.6259C8.93333 67.2525 8.42667 66.7405 8.064 66.0899C7.70133 65.4392 7.52 64.7085 7.52 63.8979C7.52 63.0872 7.70133 62.3565 8.064 61.7059C8.42667 61.0552 8.93333 60.5485 9.584 60.1859C10.2347 59.8125 10.9707 59.6259 11.792 59.6259C12.6133 59.6259 13.3493 59.8125 14 60.1859C14.6507 60.5485 15.1627 61.0552 15.536 61.7059C15.8987 62.3565 16.08 63.0872 16.08 63.8979ZM15.072 63.8979C15.072 63.3005 14.9387 62.7672 14.672 62.2979C14.3947 61.8179 14.0053 61.4445 13.504 61.1779C13.0027 60.9112 12.432 60.7779 11.792 60.7779C11.152 60.7779 10.5813 60.9112 10.08 61.1779C9.57867 61.4445 9.19467 61.8179 8.928 62.2979C8.65067 62.7672 8.512 63.3005 8.512 63.8979C8.512 64.4952 8.65067 65.0339 8.928 65.5139C9.19467 65.9832 9.57867 66.3565 10.08 66.6339C10.5813 66.9005 11.152 67.0339 11.792 67.0339C12.432 67.0339 13.0027 66.9005 13.504 66.6339C14.0053 66.3565 14.3947 65.9832 14.672 65.5139C14.9387 65.0339 15.072 64.4952 15.072 63.8979ZM4.128 57.3066L4.128 56.1706L16 56.1706L16 57.3066L4.128 57.3066ZM4.128 53.0097L4.128 51.8738L16 51.8738L16 53.0098L4.128 53.0097ZM4.128 36.8454L16 36.8454L16 37.9334L14.336 37.9334C14.9013 38.2747 15.3333 38.728 15.632 39.2934C15.9307 39.848 16.08 40.4774 16.08 41.1814C16.08 41.9707 15.8987 42.6854 15.536 43.3254C15.1733 43.9654 14.6667 44.4667 14.016 44.8294C13.3653 45.192 12.624 45.3734 11.792 45.3734C10.96 45.3734 10.2187 45.192 9.568 44.8294C8.91733 44.4667 8.416 43.9654 8.064 43.3254C7.70133 42.6854 7.52 41.9707 7.52 41.1814C7.52 40.4987 7.664 39.8854 7.952 39.3414C8.22933 38.7867 8.64 38.3334 9.184 37.9814L4.128 37.9814L4.128 36.8454ZM15.072 41.0854C15.072 40.4987 14.9387 39.9707 14.672 39.5014C14.3947 39.0214 14.0053 38.648 13.504 38.3814C13.0027 38.104 12.432 37.9654 11.792 37.9654C11.152 37.9654 10.5813 38.104 10.08 38.3814C9.57867 38.648 9.19467 39.0214 8.928 39.5014C8.65067 39.9707 8.512 40.4987 8.512 41.0854C8.512 41.6827 8.65067 42.2214 8.928 42.7014C9.19467 43.1707 9.57867 43.544 10.08 43.8214C10.5813 44.088 11.152 44.2214 11.792 44.2214C12.432 44.2214 13.0027 44.088 13.504 43.8214C14.0053 43.544 14.3947 43.1707 14.672 42.7014C14.9387 42.2214 15.072 41.6827 15.072 41.0854ZM16.08 30.2416C16.08 31.0523 15.8987 31.783 15.536 32.4336C15.1627 33.0843 14.6507 33.5963 14 33.9696C13.3493 34.343 12.6133 34.5296 11.792 34.5296C10.9707 34.5296 10.2347 34.343 9.584 33.9696C8.93333 33.5963 8.42667 33.0843 8.064 32.4336C7.70133 31.783 7.52 31.0523 7.52 30.2416C7.52 29.431 7.70133 28.7003 8.064 28.0496C8.42667 27.399 8.93333 26.8923 9.584 26.5296C10.2347 26.1563 10.9707 25.9696 11.792 25.9696C12.6133 25.9696 13.3493 26.1563 14 26.5296C14.6507 26.8923 15.1627 27.399 15.536 28.0496C15.8987 28.7003 16.08 29.431 16.08 30.2416ZM15.072 30.2416C15.072 29.6443 14.9387 29.111 14.672 28.6416C14.3947 28.1616 14.0053 27.7883 13.504 27.5216C13.0027 27.255 12.432 27.1216 11.792 27.1216C11.152 27.1216 10.5813 27.255 10.08 27.5216C9.57867 27.7883 9.19467 28.1616 8.928 28.6416C8.65067 29.111 8.512 29.6443 8.512 30.2416C8.512 30.839 8.65067 31.3776 8.928 31.8576C9.19467 32.327 9.57867 32.7003 10.08 32.9776C10.5813 33.2443 11.152 33.3776 11.792 33.3776C12.432 33.3776 13.0027 33.2443 13.504 32.9776C14.0053 32.7003 14.3947 32.327 14.672 31.8576C14.9387 31.3776 15.072 30.839 15.072 30.2416ZM7.584 11.5327L16 14.7167L16 15.7887L9.104 18.4447L16 21.1008L16 22.1727L7.584 25.3408L7.584 24.2528L14.736 21.6127L7.584 18.9087L7.584 17.9327L14.736 15.2447L7.584 12.5727L7.584 11.5327ZM7.52 5.53425C7.52 4.47825 7.82933 3.64092 8.448 3.02225C9.056 2.39292 9.94667 2.07825 11.12 2.07825L16 2.07825L16 3.21425L11.232 3.21425C10.3573 3.21425 9.69067 3.43292 9.232 3.87025C8.77333 4.30758 8.544 4.93158 8.544 5.74225C8.544 6.64892 8.816 7.36892 9.36 7.90225C9.89333 8.42492 10.6347 8.68625 11.584 8.68625L16 8.68625L16 9.82225L7.584 9.82225L7.584 8.73425L9.136 8.73425C8.624 8.42492 8.22933 7.99825 7.952 7.45425C7.664 6.89958 7.52 6.25958 7.52 5.53425Z" fill="black"/>
</svg>
