<svg width="31" height="31" viewBox="0 0 31 31" fill="none" xmlns="http://www.w3.org/2000/svg">
<path d="M15.8456 28.9384C23.0482 28.9384 28.881 23.0897 28.881 15.8824C28.881 8.6751 23.0482 2.82644 15.8456 2.82644C8.64306 2.82644 2.81021 8.6751 2.81021 15.8824C2.81021 23.0897 8.64306 28.9384 15.8456 28.9384Z" fill="white" stroke="white" stroke-width="3.80488"/>
<path d="M11.1967 9.43665L9.54675 7.79582L8.25425 9.08832L9.89508 10.7291L11.1967 9.43665ZM5.91675 14.625H8.66675V16.4583H5.91675V14.625ZM15.0834 5.50415H16.9167V8.20832H15.0834V5.50415ZM22.4534 7.79123L23.7441 9.08098L22.1032 10.7218L20.8135 9.43115L22.4534 7.79123ZM20.8034 21.6467L22.4442 23.2966L23.7367 22.0042L22.0867 20.3633L20.8034 21.6467ZM23.3334 14.625H26.0834V16.4583H23.3334V14.625ZM16.0001 10.0416C12.9659 10.0416 10.5001 12.5075 10.5001 15.5416C10.5001 18.5758 12.9659 21.0417 16.0001 21.0417C19.0342 21.0417 21.5001 18.5758 21.5001 15.5416C21.5001 12.5075 19.0342 10.0416 16.0001 10.0416ZM16.0001 19.2083C13.9742 19.2083 12.3334 17.5675 12.3334 15.5416C12.3334 13.5158 13.9742 11.875 16.0001 11.875C18.0259 11.875 19.6667 13.5158 19.6667 15.5416C19.6667 17.5675 18.0259 19.2083 16.0001 19.2083ZM15.0834 22.875H16.9167V25.5792H15.0834V22.875ZM8.25425 21.995L9.54675 23.2875L11.1876 21.6375L9.89508 20.345L8.25425 21.995Z" fill="black"/>
</svg>
